<svg xmlns="http://www.w3.org/2000/svg" width="820" height="467" viewBox="0 0 820 467">
<rect width="100%" height="100%" fill="white"/>
<text x="20" y="28" font-family="sans-serif" font-size="17" fill="#172b43">Supplemental: signed gaps under primary weights</text>
<text x="20" y="50" font-family="sans-serif" font-size="12">Bar = (model - target) x sqrt(weight). These are objective units, not statistical z-scores.</text>
<line x1="555" x2="555" y1="68" y2="452" stroke="#777"/>
<text x="20" y="82" font-family="sans-serif" font-size="12">Childlessness, ages 40-44</text>
<rect x="482.176" y="70" width="72.824" height="16" fill="#307e8c"/>
<text x="775" y="82" text-anchor="end" font-family="sans-serif" font-size="11">-1.376</text>
<text x="20" y="111" font-family="sans-serif" font-size="12">Exactly one child, among mothers</text>
<rect x="555.000" y="99" width="90.531" height="16" fill="#b75837"/>
<text x="775" y="111" text-anchor="end" font-family="sans-serif" font-size="11">1.71</text>
<text x="20" y="140" font-family="sans-serif" font-size="12">Mean age at first birth</text>
<rect x="555.000" y="128" width="160.811" height="16" fill="#b75837"/>
<text x="775" y="140" text-anchor="end" font-family="sans-serif" font-size="11">3.038</text>
<text x="20" y="169" font-family="sans-serif" font-size="12">First births at age 30 or older</text>
<rect x="515.542" y="157" width="39.458" height="16" fill="#307e8c"/>
<text x="775" y="169" text-anchor="end" font-family="sans-serif" font-size="11">-0.745</text>
<text x="20" y="198" font-family="sans-serif" font-size="12">Aggregate wealth / annual earnings</text>
<rect x="420.808" y="186" width="134.192" height="16" fill="#307e8c"/>
<text x="775" y="198" text-anchor="end" font-family="sans-serif" font-size="11">-2.535</text>
<text x="20" y="227" font-family="sans-serif" font-size="12">Annual bequest flow / wealth</text>
<rect x="535.829" y="215" width="19.171" height="16" fill="#307e8c"/>
<text x="775" y="227" text-anchor="end" font-family="sans-serif" font-size="11">-0.362</text>
<text x="20" y="256" font-family="sans-serif" font-size="12">Older wealth/income: p90 / median</text>
<rect x="485.402" y="244" width="69.598" height="16" fill="#307e8c"/>
<text x="775" y="256" text-anchor="end" font-family="sans-serif" font-size="11">-1.315</text>
<text x="20" y="285" font-family="sans-serif" font-size="12">Mean occupied rooms (AHS)</text>
<rect x="555.000" y="273" width="190.000" height="16" fill="#b75837"/>
<text x="775" y="285" text-anchor="end" font-family="sans-serif" font-size="11">3.589</text>
<text x="20" y="314" font-family="sans-serif" font-size="12">Ownership, ages 30-55</text>
<rect x="392.701" y="302" width="162.299" height="16" fill="#307e8c"/>
<text x="775" y="314" text-anchor="end" font-family="sans-serif" font-size="11">-3.066</text>
<text x="20" y="343" font-family="sans-serif" font-size="12">Housing response to first birth</text>
<rect x="555.000" y="331" width="56.179" height="16" fill="#b75837"/>
<text x="775" y="343" text-anchor="end" font-family="sans-serif" font-size="11">1.061</text>
<text x="20" y="372" font-family="sans-serif" font-size="12">Rooms: 3+ vs 1-2 children at home</text>
<rect x="480.293" y="360" width="74.707" height="16" fill="#307e8c"/>
<text x="775" y="372" text-anchor="end" font-family="sans-serif" font-size="11">-1.411</text>
<text x="20" y="401" font-family="sans-serif" font-size="12">Recent-parent ownership gap</text>
<rect x="476.615" y="389" width="78.385" height="16" fill="#307e8c"/>
<text x="775" y="401" text-anchor="end" font-family="sans-serif" font-size="11">-1.481</text>
<text x="20" y="430" font-family="sans-serif" font-size="12">Children ever born at 25, capped at 3</text>
<rect x="405.296" y="418" width="149.704" height="16" fill="#307e8c"/>
<text x="775" y="430" text-anchor="end" font-family="sans-serif" font-size="11">-2.828</text>
</svg>